<svg width="137" height="17" viewBox="0 0 137 17" fill="none" xmlns="http://www.w3.org/2000/svg">
<path d="M0.646606 16.4999V1.33324H3.13827V16.4999H0.646606ZM2.35827 16.4999V14.2249H10.2883V16.4999H2.35827Z" fill="#262626"/>
<path d="M12.2557 16.4999V6.0999H14.639V16.4999H12.2557ZM13.4474 4.19324C13.0429 4.19324 12.7035 4.05601 12.429 3.78157C12.169 3.50713 12.039 3.16768 12.039 2.76324C12.039 2.35879 12.169 2.01935 12.429 1.7449C12.7035 1.47046 13.0429 1.33324 13.4474 1.33324C13.8663 1.33324 14.2057 1.47046 14.4657 1.7449C14.7257 2.01935 14.8557 2.35879 14.8557 2.76324C14.8557 3.16768 14.7257 3.50713 14.4657 3.78157C14.2057 4.05601 13.8663 4.19324 13.4474 4.19324Z" fill="#262626"/>
<path d="M18.8938 16.4999V1.76657H21.2772V16.4999H18.8938ZM16.4022 8.26657V6.0999H30.0522V8.26657H16.4022ZM25.1772 16.4999V1.76657H27.5605V16.4999H25.1772Z" fill="#262626"/>
<path d="M31.7848 16.4999V0.899902H34.1682V16.4999H31.7848Z" fill="#262626"/>
<path d="M41.6523 16.7166C40.6123 16.7166 39.6734 16.4855 38.8356 16.0232C38.0123 15.5466 37.3551 14.8966 36.864 14.0732C36.3873 13.2499 36.149 12.3255 36.149 11.2999C36.149 10.2743 36.3873 9.35713 36.864 8.54824C37.3406 7.7249 37.9834 7.0749 38.7923 6.59824C39.6156 6.12157 40.5256 5.88324 41.5223 5.88324C42.4901 5.88324 43.3423 6.10713 44.079 6.5549C44.8301 7.00268 45.4151 7.61657 45.834 8.39657C46.2673 9.17657 46.484 10.0649 46.484 11.0616C46.484 11.2349 46.4695 11.4155 46.4406 11.6032C46.4262 11.7766 46.3973 11.9716 46.354 12.1882H37.8173V10.2382H45.119L44.2306 11.0182C44.2017 10.3827 44.079 9.84824 43.8623 9.4149C43.6456 8.98157 43.3351 8.64935 42.9306 8.41824C42.5406 8.18713 42.0567 8.07157 41.479 8.07157C40.8723 8.07157 40.3451 8.20157 39.8973 8.46157C39.4495 8.72157 39.1029 9.0899 38.8573 9.56657C38.6117 10.0288 38.489 10.5849 38.489 11.2349C38.489 11.8849 38.619 12.4555 38.879 12.9466C39.139 13.4377 39.5073 13.8205 39.984 14.0949C40.4606 14.3549 41.0095 14.4849 41.6306 14.4849C42.1651 14.4849 42.6562 14.391 43.104 14.2032C43.5662 14.0155 43.9562 13.741 44.274 13.3799L45.7906 14.9182C45.2851 15.5105 44.6712 15.9582 43.949 16.2616C43.2267 16.5649 42.4612 16.7166 41.6523 16.7166Z" fill="#262626"/>
<path d="M53.0571 16.4999V1.33324H55.5488V16.4999H53.0571ZM54.7688 16.4999V14.2249H62.6988V16.4999H54.7688Z" fill="#262626"/>
<path d="M69.1165 16.7166C68.0765 16.7166 67.1376 16.4855 66.2998 16.0232C65.4765 15.5466 64.8193 14.8966 64.3282 14.0732C63.8515 13.2499 63.6132 12.3255 63.6132 11.2999C63.6132 10.2743 63.8515 9.35713 64.3282 8.54824C64.8048 7.7249 65.4476 7.0749 66.2565 6.59824C67.0798 6.12157 67.9898 5.88324 68.9865 5.88324C69.9543 5.88324 70.8065 6.10713 71.5432 6.5549C72.2943 7.00268 72.8793 7.61657 73.2982 8.39657C73.7315 9.17657 73.9482 10.0649 73.9482 11.0616C73.9482 11.2349 73.9337 11.4155 73.9048 11.6032C73.8904 11.7766 73.8615 11.9716 73.8182 12.1882H65.2815V10.2382H72.5832L71.6948 11.0182C71.6659 10.3827 71.5432 9.84824 71.3265 9.4149C71.1098 8.98157 70.7993 8.64935 70.3948 8.41824C70.0048 8.18713 69.5209 8.07157 68.9432 8.07157C68.3365 8.07157 67.8093 8.20157 67.3615 8.46157C66.9137 8.72157 66.5671 9.0899 66.3215 9.56657C66.0759 10.0288 65.9532 10.5849 65.9532 11.2349C65.9532 11.8849 66.0832 12.4555 66.3432 12.9466C66.6032 13.4377 66.9715 13.8205 67.4482 14.0949C67.9248 14.3549 68.4737 14.4849 69.0948 14.4849C69.6293 14.4849 70.1204 14.391 70.5682 14.2032C71.0304 14.0155 71.4204 13.741 71.7382 13.3799L73.2548 14.9182C72.7493 15.5105 72.1354 15.9582 71.4132 16.2616C70.6909 16.5649 69.9254 16.7166 69.1165 16.7166Z" fill="#262626"/>
<path d="M80.2137 16.7166C79.2748 16.7166 78.4226 16.4782 77.6571 16.0016C76.9059 15.5249 76.3065 14.8821 75.8587 14.0732C75.4254 13.2499 75.2087 12.3327 75.2087 11.3216C75.2087 10.296 75.4254 9.37879 75.8587 8.5699C76.3065 7.74657 76.9059 7.09657 77.6571 6.6199C78.4226 6.12879 79.2748 5.88324 80.2137 5.88324C81.0082 5.88324 81.7087 6.05657 82.3154 6.40324C82.9365 6.73546 83.4276 7.19768 83.7887 7.7899C84.1498 8.38213 84.3304 9.05379 84.3304 9.8049V12.7949C84.3304 13.546 84.1498 14.2177 83.7887 14.8099C83.4421 15.4021 82.9582 15.8716 82.3371 16.2182C81.7159 16.5505 81.0082 16.7166 80.2137 16.7166ZM80.6037 14.4632C81.4848 14.4632 82.1926 14.1671 82.7271 13.5749C83.2759 12.9827 83.5504 12.2243 83.5504 11.2999C83.5504 10.6788 83.4276 10.1299 83.1821 9.65324C82.9365 9.17657 82.5898 8.80824 82.1421 8.54824C81.7087 8.27379 81.1959 8.13657 80.6037 8.13657C80.0259 8.13657 79.5132 8.27379 79.0654 8.54824C78.6321 8.80824 78.2854 9.17657 78.0254 9.65324C77.7798 10.1299 77.6571 10.6788 77.6571 11.2999C77.6571 11.921 77.7798 12.4699 78.0254 12.9466C78.2854 13.4232 78.6321 13.7988 79.0654 14.0732C79.5132 14.3332 80.0259 14.4632 80.6037 14.4632ZM83.3987 16.4999V13.7049L83.8104 11.1699L83.3987 8.65657V6.0999H85.7821V16.4999H83.3987Z" fill="#262626"/>
<path d="M88.4271 16.4999V6.0999H90.8104V16.4999H88.4271ZM90.8104 10.7149L89.9871 10.3032C89.9871 8.98879 90.276 7.92712 90.8538 7.11824C91.446 6.2949 92.3343 5.88324 93.5187 5.88324C94.0387 5.88324 94.5082 5.97713 94.9271 6.1649C95.346 6.35268 95.736 6.65601 96.0971 7.0749L94.5371 8.67824C94.3493 8.47601 94.1399 8.33157 93.9088 8.2449C93.6776 8.15824 93.4104 8.1149 93.1071 8.1149C92.4426 8.1149 91.8937 8.32435 91.4604 8.74324C91.0271 9.16212 90.8104 9.81935 90.8104 10.7149Z" fill="#262626"/>
<path d="M104.379 16.4999V10.4982C104.379 9.8049 104.155 9.23435 103.707 8.78657C103.274 8.33879 102.71 8.1149 102.017 8.1149C101.555 8.1149 101.143 8.21601 100.782 8.41824C100.421 8.62046 100.139 8.90212 99.937 9.26324C99.7348 9.62435 99.6337 10.036 99.6337 10.4982L98.702 9.97824C98.702 9.18379 98.8753 8.48324 99.222 7.87657C99.5687 7.25546 100.045 6.77157 100.652 6.4249C101.273 6.06379 101.966 5.88324 102.732 5.88324C103.512 5.88324 104.205 6.08546 104.812 6.4899C105.419 6.8799 105.895 7.39268 106.242 8.02824C106.589 8.64935 106.762 9.29935 106.762 9.97824V16.4999H104.379ZM97.2503 16.4999V6.0999H99.6337V16.4999H97.2503Z" fill="#262626"/>
<path d="M114.016 16.7166C112.976 16.7166 112.037 16.4855 111.199 16.0232C110.376 15.5466 109.718 14.8966 109.227 14.0732C108.751 13.2499 108.512 12.3255 108.512 11.2999C108.512 10.2743 108.751 9.35713 109.227 8.54824C109.704 7.7249 110.347 7.0749 111.156 6.59824C111.979 6.12157 112.889 5.88324 113.886 5.88324C114.853 5.88324 115.706 6.10713 116.442 6.5549C117.193 7.00268 117.778 7.61657 118.197 8.39657C118.631 9.17657 118.847 10.0649 118.847 11.0616C118.847 11.2349 118.833 11.4155 118.804 11.6032C118.789 11.7766 118.761 11.9716 118.717 12.1882H110.181V10.2382H117.482L116.594 11.0182C116.565 10.3827 116.442 9.84824 116.226 9.4149C116.009 8.98157 115.698 8.64935 115.294 8.41824C114.904 8.18713 114.42 8.07157 113.842 8.07157C113.236 8.07157 112.708 8.20157 112.261 8.46157C111.813 8.72157 111.466 9.0899 111.221 9.56657C110.975 10.0288 110.852 10.5849 110.852 11.2349C110.852 11.8849 110.982 12.4555 111.242 12.9466C111.502 13.4377 111.871 13.8205 112.347 14.0949C112.824 14.3549 113.373 14.4849 113.994 14.4849C114.528 14.4849 115.019 14.391 115.467 14.2032C115.929 14.0155 116.319 13.741 116.637 13.3799L118.154 14.9182C117.648 15.5105 117.034 15.9582 116.312 16.2616C115.59 16.5649 114.824 16.7166 114.016 16.7166Z" fill="#262626"/>
<path d="M120.758 16.4999V6.0999H123.141V16.4999H120.758ZM123.141 10.7149L122.318 10.3032C122.318 8.98879 122.607 7.92712 123.184 7.11824C123.777 6.2949 124.665 5.88324 125.849 5.88324C126.369 5.88324 126.839 5.97713 127.258 6.1649C127.677 6.35268 128.067 6.65601 128.428 7.0749L126.868 8.67824C126.68 8.47601 126.471 8.33157 126.239 8.2449C126.008 8.15824 125.741 8.1149 125.438 8.1149C124.773 8.1149 124.224 8.32435 123.791 8.74324C123.358 9.16212 123.141 9.81935 123.141 10.7149Z" fill="#262626"/>
<path d="M132.75 16.7166C132.172 16.7166 131.616 16.6443 131.082 16.4999C130.547 16.341 130.056 16.1243 129.608 15.8499C129.161 15.561 128.771 15.2143 128.438 14.8099L129.955 13.2932C130.316 13.7121 130.728 14.0299 131.19 14.2466C131.667 14.4488 132.201 14.5499 132.793 14.5499C133.328 14.5499 133.732 14.4705 134.007 14.3116C134.281 14.1527 134.418 13.9216 134.418 13.6182C134.418 13.3005 134.288 13.0549 134.028 12.8816C133.768 12.7082 133.429 12.5638 133.01 12.4482C132.606 12.3182 132.172 12.1882 131.71 12.0582C131.262 11.9282 130.829 11.7549 130.41 11.5382C130.006 11.3071 129.673 10.9966 129.413 10.6066C129.153 10.2166 129.023 9.71101 129.023 9.0899C129.023 8.42546 129.175 7.8549 129.478 7.37824C129.796 6.90157 130.237 6.53324 130.8 6.27324C131.378 6.01324 132.064 5.88324 132.858 5.88324C133.696 5.88324 134.433 6.0349 135.068 6.33824C135.718 6.62712 136.26 7.06768 136.693 7.6599L135.177 9.17657C134.873 8.80101 134.527 8.51935 134.137 8.33157C133.747 8.14379 133.299 8.0499 132.793 8.0499C132.317 8.0499 131.948 8.12212 131.688 8.26657C131.428 8.41101 131.298 8.62046 131.298 8.8949C131.298 9.18379 131.428 9.40768 131.688 9.56657C131.948 9.72546 132.281 9.86268 132.685 9.97824C133.104 10.0938 133.537 10.2238 133.985 10.3682C134.447 10.4982 134.881 10.686 135.285 10.9316C135.704 11.1627 136.043 11.4805 136.303 11.8849C136.563 12.2749 136.693 12.7877 136.693 13.4232C136.693 14.4343 136.339 15.236 135.632 15.8282C134.924 16.4205 133.963 16.7166 132.75 16.7166Z" fill="#262626"/>
</svg>
